<svg width="282" height="134" viewBox="0 0 282 134" fill="none" xmlns="http://www.w3.org/2000/svg">
  <path d="M213.227 6.01549V26.4154C213.227 29.2154 215.496 31.4848 218.296 31.4848H234.187V47.3754C234.187 50.1754 236.456 52.4447 239.255 52.4447H259.656C260.322 52.4449 260.981 52.3139 261.596 52.0592C262.211 51.8044 262.77 51.431 263.241 50.9602C263.712 50.4895 264.085 49.9305 264.339 49.3154C264.594 48.7003 264.725 48.0411 264.724 47.3754V6.01549C264.725 5.34979 264.594 4.69055 264.339 4.07544C264.085 3.46033 263.712 2.90141 263.241 2.43063C262.77 1.95985 262.211 1.58643 261.596 1.33172C260.981 1.07701 260.322 0.945991 259.656 0.946166H218.296C216.952 0.946166 215.663 1.48026 214.712 2.43094C213.761 3.38162 213.227 4.67102 213.227 6.01549Z" fill="#69EF5E"/>
  <path d="M0.406357 57.514V127.985C0.406357 130.785 2.67568 133.054 5.47568 133.054H25.8756C28.6756 133.054 30.9449 130.785 30.9449 127.985V82.9833H50.4769V127.985C50.4769 130.785 52.7462 133.054 55.5449 133.054H75.9462C77.2906 133.054 78.58 132.52 79.5307 131.569C80.4814 130.618 81.0155 129.329 81.0155 127.985V92.0353C81.0155 86.2393 78.7115 80.6806 74.6142 76.582L56.8782 58.8474C54.8489 56.8175 52.4395 55.2073 49.7878 54.1087C47.1361 53.0101 44.2939 52.4447 41.4236 52.4447H5.47568C4.13121 52.4447 2.84181 52.9788 1.89113 53.9295C0.940444 54.8802 0.406357 56.1696 0.406357 57.514Z" fill="#191919"/>
  <path d="M251.056 88.6593V127.985C251.056 130.785 253.326 133.054 256.126 133.054H276.526C277.87 133.053 279.159 132.519 280.109 131.569C281.06 130.618 281.594 129.329 281.594 127.985V57.2514C281.594 54.2314 277.943 52.7194 275.807 54.854L257.458 73.206C255.428 75.2353 253.818 77.6444 252.72 80.2959C251.622 82.9474 251.056 85.7893 251.056 88.6593Z" fill="#191919"/>
  <path d="M213.227 102.515V82.9833H229.118C231.918 82.9833 234.187 80.7126 234.187 77.914V57.514C234.187 54.714 231.918 52.4447 229.118 52.4447H213.227V36.5527C213.227 35.2085 212.693 33.9194 211.742 32.969C210.791 32.0186 209.502 31.4847 208.158 31.4847H187.757C186.412 31.4847 185.123 32.0187 184.173 32.9691C183.222 33.9196 182.689 35.2086 182.689 36.5527V127.985C182.689 129.329 183.222 130.618 184.173 131.568C185.123 132.519 186.412 133.052 187.757 133.052H205.851C211.647 133.052 217.206 130.75 221.306 126.653L239.655 108.301C241.791 106.165 240.279 102.515 237.259 102.515H213.227Z" fill="#191919"/>
  <path d="M122.086 82.9833H141.618V102.515H122.086V82.9833ZM132.565 133.054C138.362 133.054 143.921 130.75 148.019 126.653L165.754 108.917C167.784 106.887 169.394 104.478 170.492 101.826C171.591 99.1743 172.156 96.3322 172.157 93.4619V57.514C172.157 54.714 169.887 52.4447 167.087 52.4447H96.6168C95.9511 52.4447 95.2919 52.5759 94.6768 52.8306C94.0618 53.0854 93.503 53.4588 93.0322 53.9295C92.5615 54.4002 92.1881 54.9591 91.9333 55.5741C91.6786 56.1891 91.5475 56.8483 91.5475 57.514V127.985C91.5475 130.785 93.8168 133.054 96.6168 133.054H132.565Z" fill="#191919"/>
</svg>
