<?xml version="1.0" encoding="UTF-8"?>
<svg xmlns="http://www.w3.org/2000/svg" xmlns:xlink="http://www.w3.org/1999/xlink" viewBox="0 0 1279.99 1279.99">
  <defs>
    <style>
      .cls-1 {
        fill: url(#linear-gradient);
      }

      .cls-2 {
        fill: #fff;
      }

      .cls-3 {
        fill: url(#linear-gradient-3);
      }

      .cls-3, .cls-4 {
        mix-blend-mode: multiply;
        opacity: .7;
      }

      .cls-4 {
        fill: url(#linear-gradient-4);
      }

      .cls-5 {
        fill: url(#linear-gradient-2);
      }

      .cls-6 {
        isolation: isolate;
      }
    </style>
    <linearGradient id="linear-gradient" x1="1283.22" y1="-95.35" x2="-275.47" y2="1686.56" gradientUnits="userSpaceOnUse">
      <stop offset="0" stop-color="#f40080"/>
      <stop offset=".03" stop-color="#f00585"/>
      <stop offset=".19" stop-color="#dd24a4"/>
      <stop offset=".37" stop-color="#ce3cbc"/>
      <stop offset=".56" stop-color="#c44dcd"/>
      <stop offset=".76" stop-color="#be57d7"/>
      <stop offset="1" stop-color="#bc5bdb"/>
    </linearGradient>
    <linearGradient id="linear-gradient-2" x1="952.07" y1="284.46" x2="372.83" y2="1133.36" gradientUnits="userSpaceOnUse">
      <stop offset="0" stop-color="#f40080"/>
      <stop offset=".02" stop-color="#f00585"/>
      <stop offset=".19" stop-color="#dd24a4"/>
      <stop offset=".36" stop-color="#ce3cbc"/>
      <stop offset=".54" stop-color="#c44dcd"/>
      <stop offset=".73" stop-color="#be57d7"/>
      <stop offset=".97" stop-color="#bc5bdb"/>
      <stop offset=".97" stop-color="#9d56e4"/>
      <stop offset=".98" stop-color="#7f52ee"/>
      <stop offset=".98" stop-color="#674ff5"/>
      <stop offset=".99" stop-color="#574cfa"/>
      <stop offset=".99" stop-color="#4d4bfe"/>
      <stop offset="1" stop-color="#4a4bff"/>
    </linearGradient>
    <linearGradient id="linear-gradient-3" x1="1070.88" y1="654.13" x2="738.19" y2="327.9" gradientUnits="userSpaceOnUse">
      <stop offset=".43" stop-color="#fff" stop-opacity="0"/>
      <stop offset=".45" stop-color="#fbf0f7" stop-opacity=".07"/>
      <stop offset=".51" stop-color="#f0bfde" stop-opacity=".32"/>
      <stop offset=".57" stop-color="#e695c9" stop-opacity=".53"/>
      <stop offset=".63" stop-color="#de72b8" stop-opacity=".7"/>
      <stop offset=".69" stop-color="#d758ab" stop-opacity=".83"/>
      <stop offset=".76" stop-color="#d345a1" stop-opacity=".92"/>
      <stop offset=".82" stop-color="#d0399b" stop-opacity=".98"/>
      <stop offset=".88" stop-color="#d0369a"/>
    </linearGradient>
    <linearGradient id="linear-gradient-4" x1="94.07" y1="210.84" x2="568.88" y2="792.24" gradientUnits="userSpaceOnUse">
      <stop offset=".47" stop-color="#fff" stop-opacity="0"/>
      <stop offset=".49" stop-color="#f6daec" stop-opacity=".18"/>
      <stop offset=".53" stop-color="#ecb3d9" stop-opacity=".38"/>
      <stop offset=".56" stop-color="#e492c9" stop-opacity=".54"/>
      <stop offset=".6" stop-color="#de75bb" stop-opacity=".69"/>
      <stop offset=".65" stop-color="#d85eaf" stop-opacity=".8"/>
      <stop offset=".7" stop-color="#d44ca6" stop-opacity=".89"/>
      <stop offset=".76" stop-color="#d140a0" stop-opacity=".95"/>
      <stop offset=".84" stop-color="#cf399d" stop-opacity=".99"/>
      <stop offset="1" stop-color="#cf379c"/>
    </linearGradient>
  </defs>
  <g class="cls-6">
    <g id="Layer_1" data-name="Layer 1">
      <g>
        <rect class="cls-1" width="1279.99" height="1279.99" rx="299.62" ry="299.62"/>
        <g>
          <path class="cls-5" d="m1003.95,478.51h-12.51v.22c1.12,2.62,2.01,5.47,2.62,8.1.89,2.4,1.56,4.58,2.01,6.98.45,1.56.61,3.07.84,4.63,1.12,4.13,1.79,8.49,2.23,12.9.61,4.8.84,10.05.84,15.07,0,5.92-.45,11.78-1.06,17.48-.45,2.63-.67,5.25-1.34,7.87-.45,3.07-1.06,5.92-1.73,8.54-.89,3.52-1.95,6.98-3.07,10.5-1.12,3.29-2.18,6.36-3.52,9.6-4.36,10.72-10.05,21.22-17.03,31.1-.67.84-1.12,1.51-1.79,2.4-1.28,1.95-2.85,3.69-4.36,5.7-5.25,6.76-11.17,13.57-17.92,19.88-2.62,2.85-5.47,5.47-8.54,8.1-.22.45-.67.67-1.12,1.12-3.24,2.63-6.53,5.47-9.83,8.1-2.4,1.95-4.8,3.68-7.2,5.64-3.96,2.85-7.87,5.7-12.23,8.54-4.86,3.29-9.66,6.37-14.91,9.44v34.95c0,75.49-29.31,146.56-82.69,199.72-53.32,53.6-124.4,82.86-199.89,82.86-155.72,0-282.58-126.85-282.58-282.58v-34.95c-66.05-38.97-105.64-92.74-105.64-153.99v188.94c0,58.63,12.9,113.96,36.29,163.82,61.7,132.55,196.2,224.62,351.92,224.62,103.91,0,201.23-40.42,274.7-113.73,32.83-33,58.85-71.08,77.67-111.95v1.06h39.81c110.44,0,200.33-89.89,200.33-200.33s-89.89-200.33-200.33-200.33Zm0,294.8h-7.87v-5.02c2.4-17.25,4.13-34.95,4.13-52.93v-130.99h3.74c52.04,0,94.47,42.43,94.47,94.47s-42.43,94.47-94.47,94.47Z"/>
          <g>
            <path class="cls-2" d="m1003.95,478.51h-12.51v.22c1.12,2.62,2.01,5.47,2.62,8.1.89,2.4,1.56,4.58,2.01,6.98.45,1.56.61,3.07.84,4.63,1.12,4.13,1.79,8.49,2.23,12.9.61,4.8.84,10.05.84,15.07,0,5.92-.45,11.78-1.06,17.48-.45,2.63-.67,5.25-1.34,7.87-.45,3.07-1.06,5.92-1.73,8.54-.89,3.52-1.95,6.98-3.07,10.5-1.12,3.29-2.18,6.36-3.52,9.6-4.36,10.72-10.05,21.22-17.03,31.1-.67.84-1.12,1.51-1.79,2.4-1.28,1.95-2.85,3.69-4.36,5.7-5.25,6.76-11.17,13.57-17.92,19.88-2.62,2.85-5.47,5.47-8.54,8.1-.22.45-.67.67-1.12,1.12-3.24,2.63-6.53,5.47-9.83,8.1-2.4,1.95-4.8,3.68-7.2,5.64-3.96,2.85-7.87,5.7-12.23,8.54-4.86,3.29-9.66,6.37-14.91,9.44v34.95c0,75.49-29.31,146.56-82.69,199.72-53.32,53.6-124.4,82.86-199.89,82.86-155.72,0-282.58-126.85-282.58-282.58v-34.95c-66.05-38.97-105.64-92.74-105.64-153.99v188.94c0,58.63,12.9,113.96,36.29,163.82,61.7,132.55,196.2,224.62,351.92,224.62,103.91,0,201.23-40.42,274.7-113.73,32.83-33,58.85-71.08,77.67-111.95v1.06h39.81c110.44,0,200.33-89.89,200.33-200.33s-89.89-200.33-200.33-200.33Zm0,294.8h-7.87v-5.02c2.4-17.25,4.13-34.95,4.13-52.93v-130.99h3.74c52.04,0,94.47,42.43,94.47,94.47s-42.43,94.47-94.47,94.47Z"/>
            <path class="cls-2" d="m1000,526.42c0,5.9-.44,11.81-1.09,17.5-.44,2.62-.66,5.25-1.31,7.87-.44,3.06-1.09,5.91-1.75,8.53-.87,3.5-1.97,7-3.06,10.5-1.09,3.28-2.19,6.34-3.5,9.62-4.37,10.72-10.06,21.21-17.06,31.06-.66.88-1.09,1.53-1.75,2.41-1.31,1.97-2.84,3.72-4.37,5.69-5.25,6.78-11.15,13.56-17.93,19.9-2.62,2.84-5.47,5.47-8.53,8.09-.22.44-.66.66-1.09,1.09-3.28,2.62-6.56,5.47-9.84,8.09-2.41,1.97-4.81,3.72-7.22,5.69-3.94,2.84-7.87,5.69-12.25,8.53-4.81,3.28-9.62,6.34-14.87,9.4-69.77,41.12-169.07,66.05-282.58,66.05-35,0-68.46-2.41-100.17-6.78l24.5,52.05c11.15,23.84,4.37,52.93-17.28,67.58-9.4,6.34-19.68,9.19-29.96,9.19-19.68,0-38.93-11.15-47.9-30.4l-62.55-133.42-18.15-38.71c-6.12-13.12-1.75-28.65,10.5-36.31l40.46-26.03,106.73-68.46c26.03-16.62,61.02-7.87,75.68,20.34,12.69,24.5,2.84,54.9-20.56,69.77l-19.47,12.69c18.37,1.75,37.84,2.62,58.18,2.62,119.86,0,209.75-32.81,253.05-68.24,16.84-13.56,26.68-27.78,28.87-40.68.22-1.75.44-3.5.44-5.25,0-27.34-38.71-62.55-106.3-86.39l38.49-24.93c12.03-7.65,16.4-23.18,10.28-36.09l-19.03-40.9c12.03,4.16,23.62,8.53,34.56,13.34,4.16,1.75,8.53,3.72,12.47,5.69,5.03,2.19,9.84,4.59,14.43,7.22,9.4,4.81,18.37,10.06,26.9,15.75,2.62,1.53,5.25,3.28,7.65,5.25,3.72,2.41,7.44,5.03,10.94,7.87,3.72,2.62,7.44,5.69,10.72,8.53,8.97,7.65,17.06,15.53,24.28,23.84,2.63,3.06,5.25,6.12,7.66,9.4.22.22.44.44.44.88,2.19,2.41,3.94,5.03,5.69,7.65,7.66,11.15,13.78,22.96,18.15,35v.22c1.09,2.62,1.97,5.47,2.62,8.09.88,2.41,1.53,4.59,1.97,7,.44,1.53.66,3.06.87,4.59,1.09,4.16,1.75,8.53,2.19,12.9.66,4.81.88,10.06.88,15.09Z"/>
            <path class="cls-2" d="m826.34,415.09l-38.49,24.93h-.22l-108.48,69.77c-8.97,5.69-18.81,8.31-28.65,8.31-18.59,0-36.53-9.62-46.37-27.56-13.56-24.71-3.94-55.99,19.9-71.08l10.06-6.56c-7.22-.22-14.87-.44-22.31-.44-63.86,0-119.2,9.19-163.38,23.4-4.37,1.31-8.53,2.62-12.68,4.16-.44.22-.88.22-1.09.44-4.59,1.53-8.97,3.06-13.12,4.81-19.03,7.65-35.43,16.18-48.99,25.15-2.19,1.53-4.16,2.84-6.12,4.37-17.93,12.9-29.74,26.47-34.56,38.93-.66,1.31-.88,2.41-1.31,3.5-.44,1.53-.66,2.84-.88,4.16-.22,1.75-.44,3.28-.44,5.03,0,24.06,29.53,53.8,82.02,77.21l-40.46,26.03c-12.25,7.65-16.62,23.18-10.5,36.31l18.15,38.71c-17.72-7.22-34.12-15.31-49.21-24.28-66.05-38.93-105.64-92.73-105.64-153.97,0-16.4,2.84-32.59,8.53-47.9,1.09-2.84,2.19-5.69,3.5-8.53.66-1.97,1.53-3.94,2.62-5.69.44-1.53,1.31-2.84,2.19-4.37,1.53-2.84,3.06-5.91,5.03-8.97,1.75-2.84,3.72-5.91,5.69-8.75,1.97-2.84,4.16-5.69,6.34-8.53s4.37-5.69,6.78-8.31c2.19-2.62,4.37-5.03,6.56-7.44,2.84-2.84,5.91-5.91,8.97-8.75,2.62-2.19,5.03-4.37,7.65-6.78,6.34-5.25,12.9-10.5,19.9-15.53,5.9-4.16,12.25-8.31,18.59-12.03,3.5-1.97,6.78-3.94,10.28-5.9,3.5-1.97,7-3.94,10.5-5.69l.28.2c68.42-35.53,160.43-56.85,264.8-56.85,26.25,0,51.62,1.53,76.11,4.16l-27.12-57.96c-10.72-22.75-4.81-50.74,15.31-65.83,27.99-20.78,66.05-10.06,80.05,19.68l61.46,131.45,19.03,40.9c6.12,12.9,1.75,28.43-10.28,36.09Z"/>
            <path class="cls-3" d="m1000,526.42c0,5.9-.44,11.81-1.09,17.5-.44,2.62-.66,5.25-1.31,7.87-.44,3.06-1.09,5.91-1.75,8.53-.87,3.5-1.97,7-3.06,10.5-1.09,3.28-2.19,6.34-3.5,9.62-4.37,10.72-10.06,21.21-17.06,31.06l-107.39-39.15c16.84-13.56,26.68-27.78,28.87-40.68.22-1.75.44-3.5.44-5.25,0-27.34-38.71-62.55-106.3-86.39l38.49-24.93c12.03-7.65,16.4-23.18,10.28-36.09l-19.03-40.9c12.03,4.16,23.62,8.53,34.56,13.34,4.16,1.75,8.53,3.72,12.47,5.69,5.03,2.19,9.84,4.59,14.43,7.22,9.4,4.81,18.37,10.06,26.9,15.75,2.62,1.53,5.25,3.28,7.65,5.25,3.72,2.41,7.44,5.03,10.94,7.87,3.72,2.62,7.44,5.69,10.72,8.53,8.97,7.65,17.06,15.53,24.28,23.84,2.63,3.06,5.25,6.12,7.66,9.4.22.22.44.44.44.88,2.19,2.41,3.94,5.03,5.69,7.65,7.66,11.15,13.78,22.96,18.15,35v.22c1.09,2.62,1.97,5.47,2.62,8.09.88,2.41,1.53,4.59,1.97,7,.44,1.53.66,3.06.87,4.59,1.09,4.16,1.75,8.53,2.19,12.9.66,4.81.88,10.06.88,15.09Z"/>
            <path class="cls-4" d="m448.4,435.87c-4.37,1.31-8.53,2.62-12.68,4.16-.44.22-.88.22-1.09.44-4.59,1.53-8.75,3.28-13.12,4.81-19.03,7.65-35.43,16.18-48.99,25.15-2.19,1.53-4.16,2.84-6.12,4.37-17.93,12.9-29.74,26.47-34.56,38.93-.66,1.31-.88,2.41-1.31,3.5-.44,1.53-.66,2.84-.88,4.16-.22,1.75-.44,3.5-.44,5.03,0,24.06,29.53,53.8,82.02,77.21l-40.46,26.03c-12.25,7.65-16.62,23.18-10.5,36.31l18.15,38.71c-17.72-7.22-34.12-15.31-49.21-24.28-66.05-38.93-105.64-92.73-105.64-153.97,0-16.4,2.84-32.59,8.53-47.9,1.09-2.84,2.19-5.69,3.5-8.53.66-1.97,1.53-3.94,2.62-5.69.44-1.53,1.31-2.84,2.19-4.37,1.53-2.84,3.06-5.91,5.03-8.97,1.75-2.84,3.72-5.91,5.69-8.75,1.97-2.84,4.16-5.69,6.34-8.53s4.37-5.69,6.78-8.31c2.19-2.62,4.37-5.03,6.56-7.44,2.84-2.84,5.91-5.91,8.97-8.75,2.62-2.19,5.03-4.37,7.65-6.78,6.34-5.25,12.9-10.5,19.9-15.53,5.9-4.16,12.25-8.31,18.59-12.03,3.5-1.97,6.78-3.94,10.28-5.9,3.5-1.97,7-3.94,10.5-5.69l101.7,72.61Z"/>
          </g>
        </g>
      </g>
    </g>
  </g>
</svg>