<?xml version="1.0" encoding="UTF-8"?>
<svg xmlns="http://www.w3.org/2000/svg" xmlns:xlink="http://www.w3.org/1999/xlink" viewBox="0 0 1273.11 299.06">
  <defs>
    <style>
      .cls-1 {
        fill: url(#linear-gradient);
      }

      .cls-2 {
        fill: #fff;
      }

      .cls-3 {
        fill: url(#linear-gradient-11);
      }

      .cls-3, .cls-4 {
        mix-blend-mode: multiply;
        opacity: .7;
      }

      .cls-4 {
        fill: url(#linear-gradient-10);
      }

      .cls-5 {
        fill: url(#linear-gradient-8);
      }

      .cls-6 {
        fill: url(#linear-gradient-9);
      }

      .cls-7 {
        fill: url(#linear-gradient-3);
      }

      .cls-8 {
        fill: url(#linear-gradient-4);
      }

      .cls-9 {
        fill: url(#linear-gradient-2);
      }

      .cls-10 {
        fill: url(#linear-gradient-6);
      }

      .cls-11 {
        fill: url(#linear-gradient-7);
      }

      .cls-12 {
        fill: url(#linear-gradient-5);
      }

      .cls-13 {
        isolation: isolate;
      }
    </style>
    <linearGradient id="linear-gradient" x1="391.8" y1="-1.93" x2="426.01" y2="414.6" gradientUnits="userSpaceOnUse">
      <stop offset="0" stop-color="#f40080"/>
      <stop offset=".02" stop-color="#f00585"/>
      <stop offset=".19" stop-color="#dd24a4"/>
      <stop offset=".36" stop-color="#ce3cbc"/>
      <stop offset=".54" stop-color="#c44dcd"/>
      <stop offset=".73" stop-color="#be57d7"/>
      <stop offset=".97" stop-color="#bc5bdb"/>
    </linearGradient>
    <linearGradient id="linear-gradient-2" x1="496.2" y1="-10.5" x2="530.41" y2="406.03" xlink:href="#linear-gradient"/>
    <linearGradient id="linear-gradient-3" x1="625.93" y1="-21.16" x2="660.14" y2="395.38" xlink:href="#linear-gradient"/>
    <linearGradient id="linear-gradient-4" x1="759" y1="-32.09" x2="793.21" y2="384.45" xlink:href="#linear-gradient"/>
    <linearGradient id="linear-gradient-5" x1="918.28" y1="-45.17" x2="952.49" y2="371.37" xlink:href="#linear-gradient"/>
    <linearGradient id="linear-gradient-6" x1="1064.76" y1="-57.2" x2="1098.97" y2="359.34" xlink:href="#linear-gradient"/>
    <linearGradient id="linear-gradient-7" x1="1195.83" y1="-67.96" x2="1230.04" y2="348.57" xlink:href="#linear-gradient"/>
    <linearGradient id="linear-gradient-8" x1="253.13" y1="-2.3" x2="46.84" y2="300.03" gradientTransform="translate(149.53 -61.94) rotate(45)" gradientUnits="userSpaceOnUse">
      <stop offset="0" stop-color="#f40080"/>
      <stop offset=".02" stop-color="#f00585"/>
      <stop offset=".19" stop-color="#dd24a4"/>
      <stop offset=".36" stop-color="#ce3cbc"/>
      <stop offset=".54" stop-color="#c44dcd"/>
      <stop offset=".73" stop-color="#be57d7"/>
      <stop offset=".97" stop-color="#bc5bdb"/>
    </linearGradient>
    <linearGradient id="linear-gradient-9" x1="224.85" y1="50.8" x2="85.7" y2="254.73" gradientUnits="userSpaceOnUse">
      <stop offset="0" stop-color="#f40080"/>
      <stop offset=".02" stop-color="#f00585"/>
      <stop offset=".19" stop-color="#dd24a4"/>
      <stop offset=".36" stop-color="#ce3cbc"/>
      <stop offset=".54" stop-color="#c44dcd"/>
      <stop offset=".73" stop-color="#be57d7"/>
      <stop offset=".97" stop-color="#bc5bdb"/>
      <stop offset=".97" stop-color="#9d56e4"/>
      <stop offset=".98" stop-color="#7f52ee"/>
      <stop offset=".98" stop-color="#674ff5"/>
      <stop offset=".99" stop-color="#574cfa"/>
      <stop offset=".99" stop-color="#4d4bfe"/>
      <stop offset="1" stop-color="#4a4bff"/>
    </linearGradient>
    <linearGradient id="linear-gradient-10" x1="253.39" y1="139.6" x2="173.47" y2="61.23" gradientUnits="userSpaceOnUse">
      <stop offset=".43" stop-color="#fff" stop-opacity="0"/>
      <stop offset=".45" stop-color="#fbf0f7" stop-opacity=".07"/>
      <stop offset=".51" stop-color="#f0bfde" stop-opacity=".32"/>
      <stop offset=".57" stop-color="#e695c9" stop-opacity=".53"/>
      <stop offset=".63" stop-color="#de72b8" stop-opacity=".7"/>
      <stop offset=".69" stop-color="#d758ab" stop-opacity=".83"/>
      <stop offset=".76" stop-color="#d345a1" stop-opacity=".92"/>
      <stop offset=".82" stop-color="#d0399b" stop-opacity=".98"/>
      <stop offset=".88" stop-color="#d0369a"/>
    </linearGradient>
    <linearGradient id="linear-gradient-11" x1="18.74" y1="33.11" x2="132.8" y2="172.78" gradientUnits="userSpaceOnUse">
      <stop offset=".47" stop-color="#fff" stop-opacity="0"/>
      <stop offset=".49" stop-color="#f6daec" stop-opacity=".18"/>
      <stop offset=".53" stop-color="#ecb3d9" stop-opacity=".38"/>
      <stop offset=".56" stop-color="#e492c9" stop-opacity=".54"/>
      <stop offset=".6" stop-color="#de75bb" stop-opacity=".69"/>
      <stop offset=".65" stop-color="#d85eaf" stop-opacity=".8"/>
      <stop offset=".7" stop-color="#d44ca6" stop-opacity=".89"/>
      <stop offset=".76" stop-color="#d140a0" stop-opacity=".95"/>
      <stop offset=".84" stop-color="#cf399d" stop-opacity=".99"/>
      <stop offset="1" stop-color="#cf379c"/>
    </linearGradient>
  </defs>
  <g class="cls-13">
    <g id="Layer_1" data-name="Layer 1">
      <g>
        <g>
          <path class="cls-1" d="m338.2,77.86v28.95h44.45v114.38h34.05v-114.38h44.19v-28.95h-122.68Z"/>
          <path class="cls-9" d="m511.38,115.17c-31.94,0-58.58,24.27-58.58,53.91,0,25.48,17.6,46.5,43.66,52.33,4.68,1.05,9.72,1.63,14.92,1.63s10.09-.58,14.66-1.63c19.39-4.52,32.94-17.81,39.3-33.57l-32.42-.42c-3.47,5.78-11.61,9.93-21.54,9.93-15.76,0-24.33-10.19-25.96-21.07h82.91c5.1-32.89-19.44-61.1-56.95-61.1Zm-24.8,43.03c2.57-10.61,11.14-19.65,24.8-19.65s22.01,6.94,25.01,19.65h-49.81Z"/>
          <path class="cls-7" d="m666.27,117v12.98c-7.88-8.83-19.44-14.61-32.42-14.61-30.11,0-52.54,23.17-52.54,53.7,0,25.8,15.81,46.5,38.98,52.33,4.26,1.05,8.83,1.63,13.56,1.63,3.94,0,7.78-.58,11.4-1.63,8.25-2.31,15.39-7.15,21.02-13.4v13.19h31.47v-104.19h-31.47Zm-26.85,82.17c-14.61,0-26.38-12.93-26.38-30.11s11.77-30.05,26.38-30.05c15.76,0,26.64,13.4,26.64,30.05,0,22.22-15.97,30.11-26.64,30.11Z"/>
          <path class="cls-8" d="m745.92,117.69c0-11.35,13.87-18.97,28.95-18.97,16.45,0,29.16,8.56,29.16,19.23h24.33c0-22.49-23.85-40.09-53.49-40.09s-53.28,16.66-53.28,38.93c0,50.91,84.75,27.06,84.75,61.79,0,12.98-15.29,21.75-31.47,21.75-18.76,0-31.26-10.61-31.26-21.75h-24.33c0,24.06,25.01,42.61,55.59,42.61,27.32,0,55.8-15.97,55.8-41.19,0-53.07-84.75-29.42-84.75-62.31Z"/>
          <path class="cls-12" d="m997.11,117l-28.21,79.65-27.58-79.65h-19.44l-27.53,79.65-28.27-79.65h-23.85l37.51,104.19h26.64l25.22-69.46,25.48,69.46h26.17l37.72-104.19h-23.85Z"/>
          <path class="cls-10" d="m1112.91,117v18.49c-7.67-11.77-20.65-19.65-35.46-19.65-28.69,0-50.44,23.17-50.44,53.22,0,26.38,16.92,47.65,40.61,52.33,3.15.63,6.46.95,9.83.95,2.94,0,5.83-.32,8.67-.95,10.98-2.42,20.49-9.35,26.8-18.76v18.55h22.7v-104.19h-22.7Zm-31.73,87.95c-17.39,0-31.47-15.71-31.47-35.89s14.08-35.88,31.47-35.88,31.73,15.97,31.73,35.88c0,23.64-16.92,35.89-31.73,35.89Z"/>
          <path class="cls-11" d="m1222.62,115.85c-14.55,0-27.53,7.88-35.41,19.65v-18.49h-22.43v143.33h22.43v-57.69c6.3,9.4,15.66,16.34,26.69,18.76,2.78.63,5.73.95,8.72.95,3.36,0,6.67-.32,9.83-.95,23.75-4.62,40.67-25.8,40.67-52.33,0-29.84-21.75-53.22-50.49-53.22Zm-3.68,89.11c-18.07,0-31.73-15.97-31.73-35.89,0-23.59,17.13-35.88,31.73-35.88,17.34,0,31.47,15.76,31.47,35.88s-14.13,35.89-31.47,35.89Z"/>
        </g>
        <g>
          <circle class="cls-5" cx="149.53" cy="149.53" r="149.53" transform="translate(-61.94 149.53) rotate(-45)"/>
          <g>
            <path class="cls-6" d="m237.31,193.67h-9.56v-.26c-4.52,9.83-10.77,18.97-18.65,26.9-17.65,17.6-41.03,27.32-65.99,27.32-37.41,0-69.72-22.12-84.54-53.96-5.62-11.98-8.72-25.27-8.72-39.35v-45.39c0,14.71,9.51,27.64,25.38,36.99v8.41c0,37.41,30.47,67.88,67.88,67.88,18.13,0,35.2-7.04,48.02-19.91,12.82-12.77,19.86-29.84,19.86-47.97v-8.41c1.26-.74,2.42-1.47,3.57-2.26,1.05-.68,2-1.37,2.94-2.05.58-.47,1.16-.89,1.73-1.37.79-.63,1.58-1.31,2.36-1.94.1-.11.21-.16.26-.26.74-.63,1.42-1.26,2.05-1.94,1.63-1.52,3.05-3.15,4.31-4.78.37-.47.74-.89,1.05-1.37.16-.21.26-.37.42-.58,1.68-2.36,3.05-4.89,4.1-7.46.32-.79.58-1.52.84-2.31.26-.84.53-1.68.74-2.52.16-.63.32-1.31.42-2.05.16-.63.21-1.26.32-1.89.16-1.37.26-2.78.26-4.2,0-1.21-.05-2.47-.21-3.63-.1-1.05-.26-2.1-.53-3.1-.05-.37-.11-.74-.21-1.1-.11-.58-.26-1.1-.47-1.68-.16-.63-.37-1.31-.63-1.94v-.05h2.99c26.53,0,48.13,21.59,48.13,48.13s-21.59,48.13-48.13,48.13Z"/>
            <g>
              <path class="cls-2" d="m237.33,97.41h-2.99v.05c.26.63.47,1.31.63,1.94.21.58.37,1.1.47,1.68.11.37.16.74.21,1.1.26,1,.42,2.05.53,3.1.16,1.16.21,2.42.21,3.63,0,1.42-.11,2.84-.26,4.2-.11.63-.16,1.26-.32,1.89-.11.74-.26,1.42-.42,2.05-.21.84-.47,1.68-.74,2.52-.26.79-.53,1.52-.84,2.31-1.05,2.57-2.42,5.1-4.1,7.46-.16.21-.26.37-.42.58-.32.47-.68.89-1.05,1.37-1.26,1.63-2.68,3.26-4.31,4.78-.63.68-1.31,1.31-2.05,1.94-.05.11-.16.16-.26.26-.79.63-1.58,1.31-2.36,1.94-.58.47-1.16.89-1.73,1.37-.95.68-1.89,1.37-2.94,2.05-1.16.79-2.31,1.52-3.57,2.26v8.41c0,18.13-7.04,35.2-19.86,47.97-12.82,12.87-29.9,19.91-48.02,19.91-37.41,0-67.88-30.47-67.88-67.88v-8.41c-15.87-9.35-25.38-22.28-25.38-36.99v45.39c0,14.08,3.1,27.37,8.72,39.35,14.82,31.84,47.13,53.96,84.54,53.96,24.96,0,48.34-9.72,65.99-27.32,7.88-7.93,14.13-17.08,18.65-26.9v.26h9.56c26.53,0,48.13-21.59,48.13-48.13s-21.59-48.13-48.13-48.13Zm0,70.82h-1.89v-1.21c.58-4.15,1-8.41,1-12.72v-31.47h.89c12.5,0,22.7,10.19,22.7,22.7s-10.19,22.7-22.7,22.7Z"/>
              <path class="cls-2" d="m236.36,108.92c0,1.42-.11,2.84-.26,4.2-.11.63-.16,1.26-.32,1.89-.11.74-.26,1.42-.42,2.05-.21.84-.47,1.68-.74,2.52-.26.79-.53,1.52-.84,2.31-1.05,2.57-2.42,5.1-4.1,7.46-.16.21-.26.37-.42.58-.32.47-.68.89-1.05,1.37-1.26,1.63-2.68,3.26-4.31,4.78-.63.68-1.31,1.31-2.05,1.94-.05.11-.16.16-.26.26-.79.63-1.58,1.31-2.36,1.94-.58.47-1.16.89-1.73,1.37-.95.68-1.89,1.37-2.94,2.05-1.16.79-2.31,1.52-3.57,2.26-16.76,9.88-40.61,15.87-67.88,15.87-8.41,0-16.45-.58-24.06-1.63l5.88,12.5c2.68,5.73,1.05,12.72-4.15,16.24-2.26,1.52-4.73,2.21-7.2,2.21-4.73,0-9.35-2.68-11.51-7.3l-15.03-32.05-4.36-9.3c-1.47-3.15-.42-6.88,2.52-8.72l9.72-6.25,25.64-16.45c6.25-3.99,14.66-1.89,18.18,4.89,3.05,5.88.68,13.19-4.94,16.76l-4.68,3.05c4.41.42,9.09.63,13.98.63,28.79,0,50.39-7.88,60.79-16.39,4.05-3.26,6.41-6.67,6.94-9.77.05-.42.1-.84.1-1.26,0-6.57-9.3-15.03-25.53-20.75l9.25-5.99c2.89-1.84,3.94-5.57,2.47-8.67l-4.57-9.83c2.89,1,5.67,2.05,8.3,3.21,1,.42,2.05.89,2.99,1.37,1.21.53,2.36,1.1,3.47,1.73,2.26,1.16,4.41,2.42,6.46,3.78.63.37,1.26.79,1.84,1.26.89.58,1.79,1.21,2.63,1.89.89.63,1.79,1.37,2.57,2.05,2.15,1.84,4.1,3.73,5.83,5.73.63.74,1.26,1.47,1.84,2.26.05.05.11.11.11.21.53.58.95,1.21,1.37,1.84,1.84,2.68,3.31,5.52,4.36,8.41v.05c.26.63.47,1.31.63,1.94.21.58.37,1.1.47,1.68.1.37.16.74.21,1.1.26,1,.42,2.05.53,3.1.16,1.16.21,2.42.21,3.63Z"/>
              <path class="cls-2" d="m194.65,82.18l-9.25,5.99h-.05l-26.06,16.76c-2.15,1.37-4.52,2-6.88,2-4.47,0-8.77-2.31-11.14-6.62-3.26-5.94-.95-13.45,4.78-17.08l2.42-1.58c-1.73-.05-3.57-.11-5.36-.11-15.34,0-28.63,2.21-39.25,5.62-1.05.32-2.05.63-3.05,1-.11.05-.21.05-.26.1-1.1.37-2.15.74-3.15,1.16-4.57,1.84-8.51,3.89-11.77,6.04-.53.37-1,.68-1.47,1.05-4.31,3.1-7.15,6.36-8.3,9.35-.16.32-.21.58-.32.84-.11.37-.16.68-.21,1-.05.42-.1.79-.1,1.21,0,5.78,7.09,12.92,19.7,18.55l-9.72,6.25c-2.94,1.84-3.99,5.57-2.52,8.72l4.36,9.3c-4.26-1.73-8.2-3.68-11.82-5.83-15.87-9.35-25.38-22.28-25.38-36.99,0-3.94.68-7.83,2.05-11.51.26-.68.53-1.37.84-2.05.16-.47.37-.95.63-1.37.11-.37.32-.68.53-1.05.37-.68.74-1.42,1.21-2.15.42-.68.89-1.42,1.37-2.1.47-.68,1-1.37,1.52-2.05s1.05-1.37,1.63-2c.53-.63,1.05-1.21,1.58-1.79.68-.68,1.42-1.42,2.15-2.1.63-.53,1.21-1.05,1.84-1.63,1.52-1.26,3.1-2.52,4.78-3.73,1.42-1,2.94-2,4.47-2.89.84-.47,1.63-.95,2.47-1.42.84-.47,1.68-.95,2.52-1.37l.07.05c16.44-8.53,38.54-13.66,63.61-13.66,6.3,0,12.4.37,18.28,1l-6.51-13.92c-2.57-5.46-1.16-12.19,3.68-15.81,6.73-4.99,15.87-2.42,19.23,4.73l14.76,31.58,4.57,9.83c1.47,3.1.42,6.83-2.47,8.67Z"/>
              <path class="cls-4" d="m236.36,108.92c0,1.42-.11,2.84-.26,4.2-.11.63-.16,1.26-.32,1.89-.11.74-.26,1.42-.42,2.05-.21.84-.47,1.68-.74,2.52-.26.79-.53,1.52-.84,2.31-1.05,2.57-2.42,5.1-4.1,7.46l-25.8-9.4c4.05-3.26,6.41-6.67,6.94-9.77.05-.42.1-.84.1-1.26,0-6.57-9.3-15.03-25.53-20.75l9.25-5.99c2.89-1.84,3.94-5.57,2.47-8.67l-4.57-9.83c2.89,1,5.67,2.05,8.3,3.21,1,.42,2.05.89,2.99,1.37,1.21.53,2.36,1.1,3.47,1.73,2.26,1.16,4.41,2.42,6.46,3.78.63.37,1.26.79,1.84,1.26.89.58,1.79,1.21,2.63,1.89.89.63,1.79,1.37,2.57,2.05,2.15,1.84,4.1,3.73,5.83,5.73.63.74,1.26,1.47,1.84,2.26.05.05.11.11.11.21.53.58.95,1.21,1.37,1.84,1.84,2.68,3.31,5.52,4.36,8.41v.05c.26.63.47,1.31.63,1.94.21.58.37,1.1.47,1.68.1.37.16.74.21,1.1.26,1,.42,2.05.53,3.1.16,1.16.21,2.42.21,3.63Z"/>
              <path class="cls-3" d="m103.86,87.17c-1.05.32-2.05.63-3.05,1-.11.05-.21.05-.26.1-1.1.37-2.1.79-3.15,1.16-4.57,1.84-8.51,3.89-11.77,6.04-.53.37-1,.68-1.47,1.05-4.31,3.1-7.15,6.36-8.3,9.35-.16.32-.21.58-.32.84-.11.37-.16.68-.21,1-.05.42-.1.84-.1,1.21,0,5.78,7.09,12.92,19.7,18.55l-9.72,6.25c-2.94,1.84-3.99,5.57-2.52,8.72l4.36,9.3c-4.26-1.73-8.2-3.68-11.82-5.83-15.87-9.35-25.38-22.28-25.38-36.99,0-3.94.68-7.83,2.05-11.51.26-.68.53-1.37.84-2.05.16-.47.37-.95.63-1.37.11-.37.32-.68.53-1.05.37-.68.74-1.42,1.21-2.15.42-.68.89-1.42,1.37-2.1.47-.68,1-1.37,1.52-2.05s1.05-1.37,1.63-2c.53-.63,1.05-1.21,1.58-1.79.68-.68,1.42-1.42,2.15-2.1.63-.53,1.21-1.05,1.84-1.63,1.52-1.26,3.1-2.52,4.78-3.73,1.42-1,2.94-2,4.47-2.89.84-.47,1.63-.95,2.47-1.42.84-.47,1.68-.95,2.52-1.37l24.43,17.44Z"/>
            </g>
          </g>
        </g>
      </g>
    </g>
  </g>
</svg>